<svg width="108" height="56" viewBox="0 0 108 56" fill="none" xmlns="http://www.w3.org/2000/svg">
<g filter="url(#filter0_d_301_1819)">
<rect x="4.06836" width="99" height="48" rx="8" fill="#29ABE2"/>
<path d="M29.4775 30V18.3636H33.5456C34.3562 18.3636 35.0248 18.5038 35.5513 18.7841C36.0778 19.0606 36.4699 19.4337 36.7275 19.9034C36.985 20.3693 37.1138 20.8864 37.1138 21.4545C37.1138 21.9545 37.0248 22.3674 36.8468 22.6932C36.6725 23.0189 36.4415 23.2765 36.1536 23.4659C35.8695 23.6553 35.5608 23.7955 35.2275 23.8864V24C35.5835 24.0227 35.9415 24.1477 36.3013 24.375C36.6612 24.6023 36.9623 24.928 37.2047 25.3523C37.4471 25.7765 37.5684 26.2955 37.5684 26.9091C37.5684 27.4924 37.4358 28.017 37.1706 28.483C36.9055 28.9489 36.4869 29.3182 35.915 29.5909C35.343 29.8636 34.5987 30 33.682 30H29.4775ZM30.8865 28.75H33.682C34.6025 28.75 35.2559 28.572 35.6422 28.2159C36.0324 27.8561 36.2275 27.4205 36.2275 26.9091C36.2275 26.5152 36.1271 26.1515 35.9263 25.8182C35.7256 25.4811 35.4396 25.2121 35.0684 25.0114C34.6971 24.8068 34.2578 24.7045 33.7502 24.7045H30.8865V28.75ZM30.8865 23.4773H33.5002C33.9244 23.4773 34.307 23.3939 34.6479 23.2273C34.9926 23.0606 35.2653 22.8258 35.4661 22.5227C35.6706 22.2197 35.7729 21.8636 35.7729 21.4545C35.7729 20.9432 35.5949 20.5095 35.2388 20.1534C34.8828 19.7936 34.3184 19.6136 33.5456 19.6136H30.8865V23.4773ZM45.2019 26.4318V21.2727H46.5428V30H45.2019V28.5227H45.111C44.9064 28.9659 44.5882 29.3428 44.1564 29.6534C43.7246 29.9602 43.1792 30.1136 42.5201 30.1136C41.9746 30.1136 41.4898 29.9943 41.0655 29.7557C40.6413 29.5133 40.3079 29.1496 40.0655 28.6648C39.8231 28.1761 39.7019 27.5606 39.7019 26.8182V21.2727H41.0428V26.7273C41.0428 27.3636 41.2208 27.8712 41.5769 28.25C41.9367 28.6288 42.3951 28.8182 42.9519 28.8182C43.2852 28.8182 43.6242 28.733 43.9689 28.5625C44.3174 28.392 44.6091 28.1307 44.8439 27.7784C45.0826 27.4261 45.2019 26.9773 45.2019 26.4318ZM52.7942 21.2727V22.4091H48.2715V21.2727H52.7942ZM49.5897 19.1818H50.9306V27.5C50.9306 27.8788 50.9855 28.1629 51.0953 28.3523C51.209 28.5379 51.3529 28.6629 51.5272 28.7273C51.7052 28.7879 51.8927 28.8182 52.0897 28.8182C52.2374 28.8182 52.3586 28.8106 52.4533 28.7955C52.548 28.7765 52.6238 28.7614 52.6806 28.75L52.9533 29.9545C52.8624 29.9886 52.7355 30.0227 52.5726 30.0568C52.4097 30.0947 52.2033 30.1136 51.9533 30.1136C51.5745 30.1136 51.2033 30.0322 50.8397 29.8693C50.4798 29.7064 50.1806 29.4583 49.9419 29.125C49.7071 28.7917 49.5897 28.3712 49.5897 27.8636V19.1818ZM58.6067 21.2727V22.4091H54.084V21.2727H58.6067ZM55.4022 19.1818H56.7431V27.5C56.7431 27.8788 56.798 28.1629 56.9078 28.3523C57.0215 28.5379 57.1654 28.6629 57.3397 28.7273C57.5177 28.7879 57.7052 28.8182 57.9022 28.8182C58.0499 28.8182 58.1711 28.8106 58.2658 28.7955C58.3605 28.7765 58.4363 28.7614 58.4931 28.75L58.7658 29.9545C58.6749 29.9886 58.548 30.0227 58.3851 30.0568C58.2222 30.0947 58.0158 30.1136 57.7658 30.1136C57.387 30.1136 57.0158 30.0322 56.6522 29.8693C56.2923 29.7064 55.9931 29.4583 55.7544 29.125C55.5196 28.7917 55.4022 28.3712 55.4022 27.8636V19.1818ZM64.0755 30.1818C63.2876 30.1818 62.5963 29.9943 62.0016 29.6193C61.4107 29.2443 60.9486 28.7197 60.6152 28.0455C60.2857 27.3712 60.1209 26.5833 60.1209 25.6818C60.1209 24.7727 60.2857 23.9792 60.6152 23.3011C60.9486 22.6231 61.4107 22.0966 62.0016 21.7216C62.5963 21.3466 63.2876 21.1591 64.0755 21.1591C64.8633 21.1591 65.5527 21.3466 66.1436 21.7216C66.7383 22.0966 67.2005 22.6231 67.53 23.3011C67.8633 23.9792 68.03 24.7727 68.03 25.6818C68.03 26.5833 67.8633 27.3712 67.53 28.0455C67.2005 28.7197 66.7383 29.2443 66.1436 29.6193C65.5527 29.9943 64.8633 30.1818 64.0755 30.1818ZM64.0755 28.9773C64.6739 28.9773 65.1664 28.8239 65.5527 28.517C65.9391 28.2102 66.2251 27.8068 66.4107 27.3068C66.5963 26.8068 66.6891 26.2652 66.6891 25.6818C66.6891 25.0985 66.5963 24.5549 66.4107 24.0511C66.2251 23.5473 65.9391 23.1402 65.5527 22.8295C65.1664 22.5189 64.6739 22.3636 64.0755 22.3636C63.477 22.3636 62.9846 22.5189 62.5982 22.8295C62.2118 23.1402 61.9258 23.5473 61.7402 24.0511C61.5546 24.5549 61.4618 25.0985 61.4618 25.6818C61.4618 26.2652 61.5546 26.8068 61.7402 27.3068C61.9258 27.8068 62.2118 28.2102 62.5982 28.517C62.9846 28.8239 63.477 28.9773 64.0755 28.9773ZM71.4178 24.75V30H70.0769V21.2727H71.3723V22.6364H71.486C71.6905 22.1932 72.0011 21.8371 72.4178 21.5682C72.8345 21.2955 73.3723 21.1591 74.0314 21.1591C74.6223 21.1591 75.1394 21.2803 75.5826 21.5227C76.0257 21.7614 76.3704 22.125 76.6167 22.6136C76.8629 23.0985 76.986 23.7121 76.986 24.4545V30H75.6451V24.5455C75.6451 23.8598 75.467 23.3258 75.111 22.9432C74.7549 22.5568 74.2663 22.3636 73.6451 22.3636C73.217 22.3636 72.8345 22.4564 72.4973 22.642C72.164 22.8277 71.9007 23.0985 71.7076 23.4545C71.5144 23.8106 71.4178 24.2424 71.4178 24.75Z" fill="white"/>
</g>
<defs>
<filter id="filter0_d_301_1819" x="0.0683594" y="0" width="107" height="56" filterUnits="userSpaceOnUse" color-interpolation-filters="sRGB">
<feFlood flood-opacity="0" result="BackgroundImageFix"/>
<feColorMatrix in="SourceAlpha" type="matrix" values="0 0 0 0 0 0 0 0 0 0 0 0 0 0 0 0 0 0 127 0" result="hardAlpha"/>
<feOffset dy="4"/>
<feGaussianBlur stdDeviation="2"/>
<feComposite in2="hardAlpha" operator="out"/>
<feColorMatrix type="matrix" values="0 0 0 0 0 0 0 0 0 0 0 0 0 0 0 0 0 0 0.25 0"/>
<feBlend mode="normal" in2="BackgroundImageFix" result="effect1_dropShadow_301_1819"/>
<feBlend mode="normal" in="SourceGraphic" in2="effect1_dropShadow_301_1819" result="shape"/>
</filter>
</defs>
</svg>
