<svg width="184" height="56" viewBox="0 0 184 56" fill="none" xmlns="http://www.w3.org/2000/svg">
<rect x="0.0683594" width="183" height="56" rx="10" fill="#2A3647"/>
<path d="M30.8713 26.0742H27.6049C27.5453 25.6516 27.4235 25.2763 27.2395 24.9482C27.0556 24.6151 26.8194 24.3317 26.5311 24.098C26.2427 23.8643 25.9096 23.6854 25.5318 23.5611C25.1589 23.4368 24.7537 23.3746 24.3162 23.3746C23.5257 23.3746 22.8372 23.571 22.2505 23.9638C21.6639 24.3516 21.209 24.9183 20.8858 25.6641C20.5627 26.4048 20.4011 27.3047 20.4011 28.3636C20.4011 29.4524 20.5627 30.3672 20.8858 31.108C21.214 31.8487 21.6713 32.408 22.258 32.7859C22.8446 33.1637 23.5233 33.3526 24.2939 33.3526C24.7264 33.3526 25.1266 33.2955 25.4945 33.1811C25.8674 33.0668 26.198 32.9002 26.4863 32.6815C26.7747 32.4577 27.0133 32.1868 27.2022 31.8686C27.3961 31.5504 27.5304 31.1875 27.6049 30.7798L30.8713 30.7947C30.7868 31.4957 30.5755 32.1719 30.2374 32.8232C29.9043 33.4695 29.4544 34.0487 28.8876 34.5607C28.3258 35.0678 27.6547 35.4705 26.8741 35.7688C26.0985 36.0621 25.2211 36.2088 24.2417 36.2088C22.8794 36.2088 21.6614 35.9006 20.5875 35.2841C19.5186 34.6676 18.6735 33.7752 18.052 32.6069C17.4355 31.4386 17.1273 30.0241 17.1273 28.3636C17.1273 26.6982 17.4405 25.2812 18.0669 24.1129C18.6934 22.9446 19.5435 22.0547 20.6174 21.4432C21.6912 20.8267 22.8993 20.5185 24.2417 20.5185C25.1266 20.5185 25.9469 20.6428 26.7026 20.8913C27.4632 21.1399 28.1369 21.5028 28.7235 21.9801C29.3102 22.4524 29.7875 23.0316 30.1554 23.7177C30.5282 24.4038 30.7669 25.1893 30.8713 26.0742ZM33.1271 36V24.5455H36.207V26.544H36.3263C36.5352 25.8331 36.8857 25.2962 37.3778 24.9332C37.87 24.5653 38.4368 24.3814 39.0781 24.3814C39.2372 24.3814 39.4087 24.3913 39.5927 24.4112C39.7766 24.4311 39.9382 24.4585 40.0774 24.4933V27.3121C39.9283 27.2674 39.7219 27.2276 39.4585 27.1928C39.195 27.158 38.9538 27.1406 38.7351 27.1406C38.2678 27.1406 37.8501 27.2425 37.4822 27.4464C37.1193 27.6452 36.831 27.9237 36.6172 28.2816C36.4084 28.6396 36.304 29.0522 36.304 29.5195V36H33.1271ZM46.4069 36.2237C45.2286 36.2237 44.2144 35.9851 43.3643 35.5078C42.5191 35.0256 41.8678 34.3445 41.4104 33.4645C40.953 32.5795 40.7243 31.533 40.7243 30.3249C40.7243 29.1467 40.953 28.1126 41.4104 27.2227C41.8678 26.3327 42.5116 25.6392 43.3419 25.142C44.1771 24.6449 45.1565 24.3963 46.2801 24.3963C47.0358 24.3963 47.7393 24.5181 48.3905 24.7617C49.0468 25.0004 49.6185 25.3608 50.1057 25.843C50.5979 26.3253 50.9807 26.9318 51.2542 27.6626C51.5276 28.3885 51.6643 29.2386 51.6643 30.2131V31.0856H41.9921V29.1168H48.6739C48.6739 28.6594 48.5745 28.2543 48.3756 27.9013C48.1768 27.5483 47.9008 27.2724 47.5479 27.0735C47.1998 26.8697 46.7947 26.7678 46.3323 26.7678C45.8501 26.7678 45.4225 26.8796 45.0496 27.1033C44.6817 27.3221 44.3934 27.6179 44.1846 27.9908C43.9758 28.3587 43.8689 28.7688 43.8639 29.2212V31.093C43.8639 31.6598 43.9683 32.1495 44.1771 32.5621C44.3909 32.9748 44.6917 33.293 45.0795 33.5167C45.4672 33.7404 45.9271 33.8523 46.4591 33.8523C46.8121 33.8523 47.1352 33.8026 47.4285 33.7031C47.7219 33.6037 47.9729 33.4545 48.1817 33.2557C48.3905 33.0568 48.5496 32.8132 48.659 32.5249L51.5972 32.7188C51.4481 33.4247 51.1423 34.0412 50.68 34.5682C50.2226 35.0902 49.6309 35.4979 48.9051 35.7912C48.1842 36.0795 47.3515 36.2237 46.4069 36.2237ZM57.0038 36.2163C56.273 36.2163 55.6217 36.0895 55.05 35.8359C54.4782 35.5774 54.0258 35.1971 53.6927 34.695C53.3646 34.1879 53.2006 33.5565 53.2006 32.8008C53.2006 32.1644 53.3174 31.63 53.551 31.1974C53.7847 30.7649 54.1029 30.4169 54.5056 30.1534C54.9083 29.8899 55.3657 29.6911 55.8778 29.5568C56.3948 29.4226 56.9367 29.3281 57.5035 29.2734C58.1697 29.2038 58.7066 29.1392 59.1143 29.0795C59.5219 29.0149 59.8177 28.9205 60.0017 28.7962C60.1856 28.6719 60.2776 28.4879 60.2776 28.2443V28.1996C60.2776 27.7273 60.1285 27.3619 59.8302 27.1033C59.5368 26.8448 59.1192 26.7156 58.5773 26.7156C58.0056 26.7156 57.5507 26.8423 57.2126 27.0959C56.8746 27.3445 56.6508 27.6577 56.5415 28.0355L53.6032 27.7969C53.7524 27.1009 54.0457 26.4993 54.4832 25.9922C54.9207 25.4801 55.485 25.0874 56.176 24.8139C56.8721 24.5355 57.6775 24.3963 58.5922 24.3963C59.2286 24.3963 59.8376 24.4709 60.4193 24.62C61.0059 24.7692 61.5255 25.0004 61.9779 25.3136C62.4353 25.6268 62.7957 26.0295 63.0592 26.5217C63.3227 27.0089 63.4545 27.593 63.4545 28.2741V36H60.4417V34.4116H60.3522C60.1682 34.7695 59.9221 35.0852 59.6139 35.3587C59.3057 35.6271 58.9353 35.8384 58.5028 35.9925C58.0702 36.1417 57.5706 36.2163 57.0038 36.2163ZM57.9136 34.0238C58.3809 34.0238 58.7936 33.9318 59.1515 33.7479C59.5095 33.5589 59.7904 33.3054 59.9942 32.9872C60.1981 32.669 60.3 32.3086 60.3 31.9059V30.6903C60.2006 30.755 60.0638 30.8146 59.8898 30.8693C59.7208 30.919 59.5294 30.9663 59.3156 31.011C59.1018 31.0508 58.8881 31.0881 58.6743 31.1229C58.4605 31.1527 58.2666 31.18 58.0926 31.2049C57.7197 31.2596 57.3941 31.3466 57.1157 31.4659C56.8373 31.5852 56.621 31.7468 56.4669 31.9506C56.3128 32.1495 56.2357 32.3981 56.2357 32.6964C56.2357 33.1289 56.3923 33.4595 56.7055 33.6882C57.0237 33.9119 57.4264 34.0238 57.9136 34.0238ZM72.0118 24.5455V26.9318H65.1137V24.5455H72.0118ZM66.6798 21.8011H69.8566V32.4801C69.8566 32.7734 69.9014 33.0021 69.9909 33.1662C70.0803 33.3253 70.2046 33.4371 70.3637 33.5018C70.5278 33.5664 70.7167 33.5987 70.9305 33.5987C71.0796 33.5987 71.2288 33.5863 71.3779 33.5614C71.5271 33.5316 71.6414 33.5092 71.721 33.4943L72.2206 35.8583C72.0615 35.908 71.8378 35.9652 71.5494 36.0298C71.2611 36.0994 70.9106 36.1417 70.498 36.1566C69.7323 36.1864 69.0612 36.0845 68.4845 35.8509C67.9127 35.6172 67.4678 35.2543 67.1496 34.7621C66.8314 34.2699 66.6748 33.6484 66.6798 32.8977V21.8011ZM79.1784 36.2237C78.0001 36.2237 76.9859 35.9851 76.1357 35.5078C75.2906 35.0256 74.6393 34.3445 74.1819 33.4645C73.7245 32.5795 73.4958 31.533 73.4958 30.3249C73.4958 29.1467 73.7245 28.1126 74.1819 27.2227C74.6393 26.3327 75.2831 25.6392 76.1134 25.142C76.9486 24.6449 77.928 24.3963 79.0516 24.3963C79.8073 24.3963 80.5107 24.5181 81.162 24.7617C81.8183 25.0004 82.39 25.3608 82.8772 25.843C83.3694 26.3253 83.7522 26.9318 84.0257 27.6626C84.2991 28.3885 84.4358 29.2386 84.4358 30.2131V31.0856H74.7636V29.1168H81.4454C81.4454 28.6594 81.346 28.2543 81.1471 27.9013C80.9482 27.5483 80.6723 27.2724 80.3193 27.0735C79.9713 26.8697 79.5661 26.7678 79.1038 26.7678C78.6215 26.7678 78.194 26.8796 77.8211 27.1033C77.4532 27.3221 77.1649 27.6179 76.9561 27.9908C76.7472 28.3587 76.6404 28.7688 76.6354 29.2212V31.093C76.6354 31.6598 76.7398 32.1495 76.9486 32.5621C77.1624 32.9748 77.4632 33.293 77.8509 33.5167C78.2387 33.7404 78.6986 33.8523 79.2306 33.8523C79.5835 33.8523 79.9067 33.8026 80.2 33.7031C80.4933 33.6037 80.7444 33.4545 80.9532 33.2557C81.162 33.0568 81.3211 32.8132 81.4305 32.5249L84.3687 32.7188C84.2195 33.4247 83.9138 34.0412 83.4514 34.5682C82.9941 35.0902 82.4024 35.4979 81.6766 35.7912C80.9557 36.0795 80.123 36.2237 79.1784 36.2237ZM90.8473 23.3896V20.7273H103.391V23.3896H98.7148V36H95.5231V23.3896H90.8473ZM107.104 36.2163C106.374 36.2163 105.722 36.0895 105.151 35.8359C104.579 35.5774 104.126 35.1971 103.793 34.695C103.465 34.1879 103.301 33.5565 103.301 32.8008C103.301 32.1644 103.418 31.63 103.652 31.1974C103.885 30.7649 104.203 30.4169 104.606 30.1534C105.009 29.8899 105.466 29.6911 105.978 29.5568C106.495 29.4226 107.037 29.3281 107.604 29.2734C108.27 29.2038 108.807 29.1392 109.215 29.0795C109.623 29.0149 109.918 28.9205 110.102 28.7962C110.286 28.6719 110.378 28.4879 110.378 28.2443V28.1996C110.378 27.7273 110.229 27.3619 109.931 27.1033C109.637 26.8448 109.22 26.7156 108.678 26.7156C108.106 26.7156 107.651 26.8423 107.313 27.0959C106.975 27.3445 106.751 27.6577 106.642 28.0355L103.704 27.7969C103.853 27.1009 104.146 26.4993 104.584 25.9922C105.021 25.4801 105.586 25.0874 106.277 24.8139C106.973 24.5355 107.778 24.3963 108.693 24.3963C109.329 24.3963 109.938 24.4709 110.52 24.62C111.107 24.7692 111.626 25.0004 112.078 25.3136C112.536 25.6268 112.896 26.0295 113.16 26.5217C113.423 27.0089 113.555 27.593 113.555 28.2741V36H110.542V34.4116H110.453C110.269 34.7695 110.023 35.0852 109.714 35.3587C109.406 35.6271 109.036 35.8384 108.603 35.9925C108.171 36.1417 107.671 36.2163 107.104 36.2163ZM108.014 34.0238C108.482 34.0238 108.894 33.9318 109.252 33.7479C109.61 33.5589 109.891 33.3054 110.095 32.9872C110.299 32.669 110.401 32.3086 110.401 31.9059V30.6903C110.301 30.755 110.164 30.8146 109.99 30.8693C109.821 30.919 109.63 30.9663 109.416 31.011C109.202 31.0508 108.989 31.0881 108.775 31.1229C108.561 31.1527 108.367 31.18 108.193 31.2049C107.82 31.2596 107.495 31.3466 107.216 31.4659C106.938 31.5852 106.722 31.7468 106.567 31.9506C106.413 32.1495 106.336 32.3981 106.336 32.6964C106.336 33.1289 106.493 33.4595 106.806 33.6882C107.124 33.9119 107.527 34.0238 108.014 34.0238ZM125.55 27.8118L122.642 27.9908C122.592 27.7422 122.485 27.5185 122.321 27.3196C122.157 27.1158 121.941 26.9542 121.672 26.8349C121.409 26.7106 121.093 26.6484 120.725 26.6484C120.233 26.6484 119.818 26.7528 119.48 26.9616C119.142 27.1655 118.973 27.4389 118.973 27.782C118.973 28.0554 119.082 28.2866 119.301 28.4755C119.52 28.6644 119.895 28.8161 120.427 28.9304L122.5 29.348C123.614 29.5767 124.444 29.9446 124.991 30.4517C125.538 30.9588 125.811 31.625 125.811 32.4503C125.811 33.201 125.59 33.8597 125.148 34.4265C124.71 34.9933 124.108 35.4357 123.343 35.7539C122.582 36.0671 121.705 36.2237 120.71 36.2237C119.194 36.2237 117.986 35.908 117.086 35.2766C116.191 34.6403 115.667 33.7752 115.513 32.6815L118.637 32.5174C118.732 32.9798 118.96 33.3327 119.323 33.5763C119.686 33.815 120.151 33.9343 120.718 33.9343C121.275 33.9343 121.722 33.8274 122.06 33.6136C122.403 33.3949 122.577 33.114 122.582 32.771C122.577 32.4826 122.455 32.2464 122.217 32.0625C121.978 31.8736 121.61 31.7294 121.113 31.63L119.129 31.2347C118.011 31.011 117.178 30.6232 116.631 30.0714C116.089 29.5195 115.818 28.8161 115.818 27.9609C115.818 27.2251 116.017 26.5913 116.415 26.0593C116.818 25.5273 117.382 25.1172 118.108 24.8288C118.839 24.5405 119.694 24.3963 120.673 24.3963C122.12 24.3963 123.258 24.7021 124.089 25.3136C124.924 25.9251 125.411 26.7578 125.55 27.8118ZM130.69 32.7038L130.698 28.8931H131.16L134.829 24.5455H138.476L133.546 30.3026H132.793L130.69 32.7038ZM127.812 36V20.7273H130.989V36H127.812ZM134.971 36L131.6 31.011L133.718 28.7663L138.692 36H134.971Z" fill="white"/>
<mask id="mask0_70_782" style="mask-type:alpha" maskUnits="userSpaceOnUse" x="143" y="16" width="25" height="24">
<rect x="143.068" y="16" width="24" height="24" fill="#D9D9D9"/>
</mask>
<g mask="url(#mask0_70_782)">
<path d="M152.619 31.15L161.094 22.675C161.294 22.475 161.532 22.375 161.807 22.375C162.082 22.375 162.319 22.475 162.519 22.675C162.719 22.875 162.819 23.1125 162.819 23.3875C162.819 23.6625 162.719 23.9 162.519 24.1L153.319 33.3C153.119 33.5 152.886 33.6 152.619 33.6C152.352 33.6 152.119 33.5 151.919 33.3L147.619 29C147.419 28.8 147.323 28.5625 147.332 28.2875C147.34 28.0125 147.444 27.775 147.644 27.575C147.844 27.375 148.082 27.275 148.357 27.275C148.632 27.275 148.869 27.375 149.069 27.575L152.619 31.15Z" fill="white"/>
</g>
</svg>
