<svg width="100" height="48" viewBox="0 0 100 48" fill="none" xmlns="http://www.w3.org/2000/svg">
<rect x="0.0683594" width="99" height="48" rx="8" fill="#2A3647"/>
<path d="M25.4775 30V18.3636H29.5456C30.3562 18.3636 31.0248 18.5038 31.5513 18.7841C32.0778 19.0606 32.4699 19.4337 32.7275 19.9034C32.985 20.3693 33.1138 20.8864 33.1138 21.4545C33.1138 21.9545 33.0248 22.3674 32.8468 22.6932C32.6725 23.0189 32.4415 23.2765 32.1536 23.4659C31.8695 23.6553 31.5608 23.7955 31.2275 23.8864V24C31.5835 24.0227 31.9415 24.1477 32.3013 24.375C32.6612 24.6023 32.9623 24.928 33.2047 25.3523C33.4471 25.7765 33.5684 26.2955 33.5684 26.9091C33.5684 27.4924 33.4358 28.017 33.1706 28.483C32.9055 28.9489 32.4869 29.3182 31.915 29.5909C31.343 29.8636 30.5987 30 29.682 30H25.4775ZM26.8865 28.75H29.682C30.6025 28.75 31.2559 28.572 31.6422 28.2159C32.0324 27.8561 32.2275 27.4205 32.2275 26.9091C32.2275 26.5152 32.1271 26.1515 31.9263 25.8182C31.7256 25.4811 31.4396 25.2121 31.0684 25.0114C30.6971 24.8068 30.2578 24.7045 29.7502 24.7045H26.8865V28.75ZM26.8865 23.4773H29.5002C29.9244 23.4773 30.307 23.3939 30.6479 23.2273C30.9926 23.0606 31.2653 22.8258 31.4661 22.5227C31.6706 22.2197 31.7729 21.8636 31.7729 21.4545C31.7729 20.9432 31.5949 20.5095 31.2388 20.1534C30.8828 19.7936 30.3184 19.6136 29.5456 19.6136H26.8865V23.4773ZM41.2019 26.4318V21.2727H42.5428V30H41.2019V28.5227H41.111C40.9064 28.9659 40.5882 29.3428 40.1564 29.6534C39.7246 29.9602 39.1792 30.1136 38.5201 30.1136C37.9746 30.1136 37.4898 29.9943 37.0655 29.7557C36.6413 29.5133 36.3079 29.1496 36.0655 28.6648C35.8231 28.1761 35.7019 27.5606 35.7019 26.8182V21.2727H37.0428V26.7273C37.0428 27.3636 37.2208 27.8712 37.5769 28.25C37.9367 28.6288 38.3951 28.8182 38.9519 28.8182C39.2852 28.8182 39.6242 28.733 39.9689 28.5625C40.3174 28.392 40.6091 28.1307 40.8439 27.7784C41.0826 27.4261 41.2019 26.9773 41.2019 26.4318ZM48.7942 21.2727V22.4091H44.2715V21.2727H48.7942ZM45.5897 19.1818H46.9306V27.5C46.9306 27.8788 46.9855 28.1629 47.0953 28.3523C47.209 28.5379 47.3529 28.6629 47.5272 28.7273C47.7052 28.7879 47.8927 28.8182 48.0897 28.8182C48.2374 28.8182 48.3586 28.8106 48.4533 28.7955C48.548 28.7765 48.6238 28.7614 48.6806 28.75L48.9533 29.9545C48.8624 29.9886 48.7355 30.0227 48.5726 30.0568C48.4097 30.0947 48.2033 30.1136 47.9533 30.1136C47.5745 30.1136 47.2033 30.0322 46.8397 29.8693C46.4798 29.7064 46.1806 29.4583 45.9419 29.125C45.7071 28.7917 45.5897 28.3712 45.5897 27.8636V19.1818ZM54.6067 21.2727V22.4091H50.084V21.2727H54.6067ZM51.4022 19.1818H52.7431V27.5C52.7431 27.8788 52.798 28.1629 52.9078 28.3523C53.0215 28.5379 53.1654 28.6629 53.3397 28.7273C53.5177 28.7879 53.7052 28.8182 53.9022 28.8182C54.0499 28.8182 54.1711 28.8106 54.2658 28.7955C54.3605 28.7765 54.4363 28.7614 54.4931 28.75L54.7658 29.9545C54.6749 29.9886 54.548 30.0227 54.3851 30.0568C54.2222 30.0947 54.0158 30.1136 53.7658 30.1136C53.387 30.1136 53.0158 30.0322 52.6522 29.8693C52.2923 29.7064 51.9931 29.4583 51.7544 29.125C51.5196 28.7917 51.4022 28.3712 51.4022 27.8636V19.1818ZM60.0755 30.1818C59.2876 30.1818 58.5963 29.9943 58.0016 29.6193C57.4107 29.2443 56.9486 28.7197 56.6152 28.0455C56.2857 27.3712 56.1209 26.5833 56.1209 25.6818C56.1209 24.7727 56.2857 23.9792 56.6152 23.3011C56.9486 22.6231 57.4107 22.0966 58.0016 21.7216C58.5963 21.3466 59.2876 21.1591 60.0755 21.1591C60.8633 21.1591 61.5527 21.3466 62.1436 21.7216C62.7383 22.0966 63.2005 22.6231 63.53 23.3011C63.8633 23.9792 64.03 24.7727 64.03 25.6818C64.03 26.5833 63.8633 27.3712 63.53 28.0455C63.2005 28.7197 62.7383 29.2443 62.1436 29.6193C61.5527 29.9943 60.8633 30.1818 60.0755 30.1818ZM60.0755 28.9773C60.6739 28.9773 61.1664 28.8239 61.5527 28.517C61.9391 28.2102 62.2251 27.8068 62.4107 27.3068C62.5963 26.8068 62.6891 26.2652 62.6891 25.6818C62.6891 25.0985 62.5963 24.5549 62.4107 24.0511C62.2251 23.5473 61.9391 23.1402 61.5527 22.8295C61.1664 22.5189 60.6739 22.3636 60.0755 22.3636C59.477 22.3636 58.9846 22.5189 58.5982 22.8295C58.2118 23.1402 57.9258 23.5473 57.7402 24.0511C57.5546 24.5549 57.4618 25.0985 57.4618 25.6818C57.4618 26.2652 57.5546 26.8068 57.7402 27.3068C57.9258 27.8068 58.2118 28.2102 58.5982 28.517C58.9846 28.8239 59.477 28.9773 60.0755 28.9773ZM67.4178 24.75V30H66.0769V21.2727H67.3723V22.6364H67.486C67.6905 22.1932 68.0011 21.8371 68.4178 21.5682C68.8345 21.2955 69.3723 21.1591 70.0314 21.1591C70.6223 21.1591 71.1394 21.2803 71.5826 21.5227C72.0257 21.7614 72.3704 22.125 72.6167 22.6136C72.8629 23.0985 72.986 23.7121 72.986 24.4545V30H71.6451V24.5455C71.6451 23.8598 71.467 23.3258 71.111 22.9432C70.7549 22.5568 70.2663 22.3636 69.6451 22.3636C69.217 22.3636 68.8345 22.4564 68.4973 22.642C68.164 22.8277 67.9007 23.0985 67.7076 23.4545C67.5144 23.8106 67.4178 24.2424 67.4178 24.75Z" fill="white"/>
</svg>
